<svg width="1024" height="1024" viewBox="0 0 1024 1024" fill="none" xmlns="http://www.w3.org/2000/svg">
  <style>
  .background { fill: #001523 }
  @media (prefers-color-scheme: dark) {
    .background { fill: transparent }
  }
  </style>
  <g clip-path="url(#clip0_2064_5429)">
    <rect class="background" width="1024" height="1024" rx="100" fill="#001523"/>
    <path d="M336.091 915C290.323 915 250.183 906.37 215.669 889.109C181.156 871.098 154.145 846.332 134.638 814.813C115.88 782.543 106.502 746.145 106.502 705.62V670.723C106.502 666.971 107.627 663.969 109.878 661.718C112.879 658.716 116.256 657.215 120.007 657.215H277.568C281.32 657.215 284.321 658.716 286.572 661.718C289.573 663.969 291.074 666.971 291.074 670.723V696.614C291.074 714.626 295.2 728.884 303.454 739.391C312.457 749.898 323.711 755.151 337.217 755.151C350.722 755.151 361.601 750.273 369.854 740.517C378.858 730.01 383.36 716.877 383.36 701.117C383.36 683.857 376.607 668.472 363.102 654.964C349.596 640.705 322.586 618.941 282.07 589.673C244.556 562.656 213.794 538.642 189.784 517.628C165.775 495.865 145.142 469.223 127.885 437.704C110.628 405.434 102 368.286 102 326.26C102 283.483 111.379 245.585 130.136 212.564C149.644 179.544 176.654 154.028 211.168 136.017C246.431 118.006 286.572 109 331.59 109C377.357 109 417.498 118.381 452.011 137.142C487.275 155.154 514.286 181.045 533.043 214.816C552.551 247.836 562.305 286.11 562.305 329.637V356.654C562.305 360.406 560.804 363.783 557.803 366.785C555.552 369.036 552.551 370.162 548.799 370.162H392.363C388.612 370.162 385.235 369.036 382.234 366.785C379.983 363.783 378.858 360.406 378.858 356.654V325.134C378.858 308.624 374.356 295.115 365.353 284.609C356.349 274.102 345.095 268.849 331.59 268.849C318.084 268.849 307.205 274.102 298.952 284.609C290.699 295.115 286.572 308.999 286.572 326.26C286.572 345.021 292.949 361.907 305.704 376.916C318.459 391.925 344.344 413.689 383.36 442.207C430.628 477.479 466.267 505.996 490.276 527.76C514.286 549.523 533.043 573.913 546.548 600.93C560.054 627.196 566.806 658.341 566.806 694.363C566.806 761.905 545.423 815.563 502.656 855.338C460.64 895.113 405.118 915 336.091 915Z" fill="url(#paint0_linear_2064_5429)"/>
    <path d="M673.782 915C628.014 915 587.498 905.994 552.234 887.983C516.971 869.222 489.585 843.33 470.078 810.31C450.57 777.289 440.816 739.391 440.816 696.614V623.444C440.816 619.692 441.941 616.69 444.192 614.438C447.193 611.436 450.57 609.936 454.321 609.936H614.134C617.885 609.936 620.887 611.436 623.138 614.438C626.139 616.69 627.639 619.692 627.639 623.444V698.866C627.639 715.376 631.766 728.884 640.019 739.391C649.023 749.897 660.277 755.151 673.782 755.151C688.038 755.151 699.668 749.897 708.671 739.391C717.675 728.884 722.176 715.376 722.176 698.866V131.514C722.176 127.762 723.302 124.76 725.553 122.508C728.554 119.506 731.93 118.005 735.682 118.005H895.495C899.246 118.005 902.247 119.506 904.498 122.508C907.499 124.76 909 127.762 909 131.514V696.614C909 739.391 899.246 777.289 879.739 810.31C860.231 843.33 832.47 869.222 796.456 887.983C761.192 905.994 720.3 915 673.782 915Z" fill="url(#paint1_linear_2064_5429)"/>
  </g>
  <defs>
    <linearGradient id="paint0_linear_2064_5429" x1="274.549" y1="-18.6854" x2="274.549" y2="922.077" gradientUnits="userSpaceOnUse">
      <stop offset="0.364583" stop-color="#FFDB00"/>
      <stop offset="1" stop-color="#EA4800"/>
    </linearGradient>
    <linearGradient id="paint1_linear_2064_5429" x1="274.549" y1="-18.6854" x2="274.549" y2="922.077" gradientUnits="userSpaceOnUse">
      <stop offset="0.364583" stop-color="#FFDB00"/>
      <stop offset="1" stop-color="#EA4800"/>
    </linearGradient>
    <clipPath id="clip0_2064_5429">
      <rect width="1024" height="1024" fill="white"/>
    </clipPath>
  </defs>
</svg>
